<svg xmlns="http://www.w3.org/2000/svg" width="128.104" height="25" viewBox="0 0 128.104 25" id="gauzy-logo" class="gauzy-top-logo"><defs><style>@import url(https://fonts.googleapis.com/css2?family=Fira+Sans:ital,wght@1,300);</style></defs><g class="g-gauzy-logo-default"><g class="g-logo-ever" data-name="logo ever"><path class="g-combined-shape" d="M473.886 3715.556a3.522 3.522 0 11-3.492 3.551v-.03a3.507 3.507 0 013.492-3.522zm0 .469a3.052 3.052 0 103.027 3.078v-.026a3.039 3.039 0 00-3.026-3.052zm-.951 1.058h1.121a1.242 1.242 0 01.892.3.937.937 0 01.257.812 1.071 1.071 0 01-.254.621 1.394 1.394 0 01-.6.405l.578 1.586v.033h-.513l-.521-1.521h-.86l-.261 1.52h-.484zm.412.407l-.246 1.423h.706a.98.98 0 00.621-.2.77.77 0 00.3-.528.611.611 0 00-.128-.506.682.682 0 00-.505-.188z" transform="translate(-407.046 -3702.114)" fill="#3E1DAD"/><path class="g-ever-copy-4" d="M229.96 3689.783l1.4 3.766a11.753 11.753 0 01-6.364 1.769c-4.567 0-6.809-2.853-6.809-6.647a8.767 8.767 0 018.884-9.073c3.756 0 5.718 2.168 5.718 5.135a10.129 10.129 0 01-.9 3.908h-8.716c-.028 1.4.925 2.453 2.83 2.453a8.256 8.256 0 003.957-1.311zm-1.457-4.108a2.469 2.469 0 00.14-.742c0-.827-.645-1.427-1.822-1.427a3.142 3.142 0 00-3.055 2.168zm7.651 2.91l.5-3c.14-.713.112-1.256-.5-1.256a3.431 3.431 0 00-1.374.31l.589-4.333a9.393 9.393 0 013.475-.571c2.411 0 3.9 1.169 3.307 4.507l-.616 3.481c-.252 1.63.112 2.483 1.205 2.483 1.6 0 2.607-1.255 2.607-4.907a22.218 22.218 0 00-.729-5.308h5.582a31.314 31.314 0 01.421 4.793c0 6.674-3.027 10.413-8.6 10.413-4.746.003-6.567-2.532-5.867-6.612zm28.444 1.2l1.4 3.766a11.754 11.754 0 01-6.364 1.769c-4.569 0-6.811-2.853-6.811-6.647a8.772 8.772 0 018.889-9.073c3.756 0 5.718 2.168 5.718 5.135a10.131 10.131 0 01-.893 3.908h-8.717c-.028 1.4.925 2.453 2.83 2.453a8.264 8.264 0 003.95-1.313zm-1.454-4.108a2.476 2.476 0 00.14-.742c0-.827-.645-1.427-1.822-1.427a3.142 3.142 0 00-3.055 2.168zm6.95 9.244l1.6-9.329c.112-.713.112-1.256-.5-1.256a4.459 4.459 0 00-1.4.31l.617-4.333a10.575 10.575 0 013.5-.571c1.682 0 2.915.628 3.279 2.14a4.248 4.248 0 013.725-2.14 5.108 5.108 0 012.469.6l-1.485 5.021a6.157 6.157 0 00-2.663-.6 2.693 2.693 0 00-2.55 2.368l-1.345 7.789z" transform="translate(-218.189 -3675.188)" fill="#3E1DAD"/></g><text class="g-gauzy-text" transform="translate(74.605 19)" fill="#3E1DAD" font-family="Fira Sans, sans-serif" font-size="21" font-weight="300" font-style="italic" letter-spacing="-.035em"><tspan x="0" y="0">gauzy</tspan></text></g></svg>